<svg height="511pt" viewBox="-30 0 511 511.998" width="511pt" xmlns="http://www.w3.org/2000/svg"><path fill="#fff" d="m339.242188 283.484375c.335937 0 .675781-.015625 1.019531-.050781.011719 0 .046875-.003906.078125-.007813 5.4375-.511719 9.472656-5.308593 9.027344-10.769531-.449219-5.507812-5.285157-9.605469-10.78125-9.152344-.0625.003906-.273438.023438-.335938.03125-5.492188.554688-9.5 5.457032-8.941406 10.953125.519531 5.15625 4.863281 8.996094 9.933594 8.996094zm0 0"/><path fill="#fff" d="m191.980469 404.132812c-11.90625 5.730469-28.121094 11.136719-37.769531 4.335938-9.125-6.425781-11.601563-22.171875-11.882813-33.648438 9.953125-.246093 21.28125-3.40625 33.914063-9.488281 4.976562-2.394531 7.070312-8.371093 4.675781-13.347656s-8.371094-7.066406-13.347657-4.671875c-11.90625 5.730469-28.121093 11.132812-37.769531 4.335938-12.332031-8.683594-12.523437-34.386719-11.558593-43.578126.597656-5.488281-3.371094-10.421874-8.859376-11.019531-5.484374-.601562-10.425781 3.367188-11.023437 8.859375-.496094 4.5625-4.15625 45.066406 19.875 62.054688 1.308594.925781 2.675781 1.730468 4.078125 2.46875-.296875 13.683594 1.632812 41.136718 20.332031 54.351562 6.488281 4.589844 14.117188 6.878906 22.832031 6.878906 10.25 0 22.003907-3.171874 35.175782-9.507812 4.976562-2.398438 7.070312-8.371094 4.675781-13.351562-2.394531-4.972657-8.371094-7.066407-13.347656-4.671876zm0 0"/><path  fill="#fff" d="m343.625 297.058594c-5.484375.585937-9.457031 5.515625-8.878906 11 .96875 9.179687.777344 34.902344-11.554688 43.589844-9.648437 6.796874-25.867187 1.394531-37.769531-4.335938-4.976563-2.394531-10.953125-.304688-13.347656 4.675781-2.394531 4.976563-.304688 10.949219 4.671875 13.347657 12.636718 6.082031 23.964844 9.238281 33.914062 9.484374-.277344 11.480469-2.753906 27.222657-11.878906 33.648438-9.648438 6.796875-25.863281 1.394531-37.769531-4.335938-4.980469-2.394531-10.953125-.300781-13.347657 4.675782-2.394531 4.976562-.304687 10.953125 4.671876 13.347656 13.175781 6.339844 24.925781 9.511719 35.175781 9.511719 8.714843 0 16.347656-2.292969 22.835937-6.878907 18.695313-13.21875 20.628906-40.667968 20.332032-54.351562 1.398437-.738281 2.765624-1.546875 4.074218-2.472656 24.035156-16.984375 20.371094-57.492188 19.875-62.054688-.597656-5.484375-5.53125-9.453125-11.003906-8.851562zm0 0"/><path  fill="#fff" d="m60.304688 85.46875c.21875.015625.4375.019531.65625.019531 5.226562 0 9.625-4.0625 9.96875-9.351562l.019531-.300781c.355469-5.511719-3.824219-10.269532-9.335938-10.621094-5.523437-.351563-10.265625 3.824218-10.621093 9.335937l-.019532.289063c-.359375 5.511718 3.820313 10.269531 9.332032 10.628906zm0 0"/><path fill="#fff" d="m448.832031 188.710938c-3.503906-5.894532-9.070312-10.089844-15.722656-11.847657-1.679687-.746093-32.238281-16.261719-32.238281-141.164062 0-14.335938-11.664063-26-26-26-8.035156 0-15.230469 3.664062-20.003906 9.414062-6.75-1.261719-14.265626-2.097656-23.171876-2.578125-3.792968-9.667968-13.210937-16.535156-24.207031-16.535156-14.335937 0-26 11.664062-26 26 0 19.632812-6.234375 37.84375-17.558593 51.28125-10.242188 12.15625-23.535157 18.851562-37.433594 18.851562-13.898438 0-27.195313-6.691406-37.4375-18.851562-11.320313-13.4375-17.554688-31.648438-17.554688-51.28125 0-14.335938-11.664062-26-26-26-11 0-20.417968 6.867188-24.210937 16.535156-8.902344.480469-16.421875 1.316406-23.167969 2.578125-4.773438-5.75-11.96875-9.414062-20.007812-9.414062-14.335938 0-26 11.664062-26 26 0 5.523437 4.480468 10 10 10 5.523437 0 10-4.476563 10-10 0-3.308594 2.691406-6 6-6 3.3125 0 6 2.691406 6 6 0 81.882812-15.640626 124.574219-28.765626 145.972656-13.621093 22.207031-27.183593 26.085937-27.226562 26.097656-.050781.011719-.105469.027344-.15625.039063-1.550781.394531-3.160156.160156-4.539062-.65625-1.375-.820313-2.351563-2.125-2.742188-3.675782-.8125-3.199218 1.125-6.460937 4.230469-7.257812 5.742187-1.378906 33.203125-12.109375 43.332031-91.386719.699219-5.476562-3.171875-10.484375-8.652344-11.183593-5.472656-.710938-10.484375 3.171874-11.1875 8.648437-8.226562 64.402344-27.191406 73.972656-28.523437 74.5625-13.769531 3.617187-22.09375 17.71875-18.585938 31.539063 1.710938 6.730468 5.9375 12.390624 11.90625 15.9375 1.289063.769531 2.632813 1.402343 4.003907 1.933593 4.199218 71.769531 26.371093 115.40625 46.015624 154.058594 14.125 27.78125 26.320313 51.777344 28.613282 81.195313.40625 5.207031 4.75 9.226562 9.972656 9.226562 26.085938 0 41.144531 9.292969 57.089844 19.132812 16.792968 10.367188 35.828125 22.113282 67.59375 22.113282 31.761718 0 50.796875-11.746094 67.589844-22.113282 15.945312-9.839843 31.003906-19.132812 57.09375-19.132812 5.21875 0 9.5625-4.019531 9.96875-9.226562 2.292968-29.417969 14.492187-53.414063 28.613281-81.195313 19.644531-38.652344 41.816406-82.289063 46.015625-154.058594 1.371094-.53125 2.714844-1.164062 4.003906-1.933593 5.96875-3.546876 10.195312-9.207032 11.902344-15.9375 1.710937-6.726563.699218-13.71875-2.851563-19.6875zm-15.785156-11.863282c-.0625-.015625-.125-.03125-.1875-.046875-.058594-.015625-.117187-.03125-.175781-.042969.015625.003907.144531.019532.363281.089844zm-58.175781-147.148437c3.308594 0 6 2.691406 6 6 0 141.5 38.914062 158.507812 47.152344 160.507812 1.527343.402344 2.8125 1.371094 3.621093 2.730469.820313 1.375 1.054688 2.984375.660157 4.539062-.394532 1.550782-1.371094 2.855469-2.746094 3.671876-1.375.820312-2.988282 1.054687-4.601563.644531-.132812-.035157-13.695312-3.914063-27.316406-26.121094-13.125-21.398437-28.769531-64.089844-28.769531-145.972656 0-3.308594 2.691406-6 6-6zm-229.367188-9.699219c3.308594 0 6 2.691406 6 6 0 24.339844 7.90625 47.128906 22.261719 64.167969 14.105469 16.746093 32.832031 25.964843 52.730469 25.964843 19.894531 0 38.621094-9.21875 52.730468-25.964843 14.355469-17.039063 22.261719-39.828125 22.261719-64.167969 0-3.308594 2.691407-6 6-6 3.308594 0 6 2.691406 6 6 0 27.015625-8.941406 52.507812-25.183593 71.78125-16.488282 19.574219-38.4375 30.351562-61.808594 30.351562s-45.320313-10.777343-61.808594-30.351562c-16.238281-19.273438-25.183594-44.765625-25.183594-71.78125 0-3.308594 2.691406-6 6-6zm-125.183594 156.753906c-.070312.015625-.148437.035156-.222656.054688-.050781.011718-.097656.023437-.148437.035156.226562-.070312.355469-.085938.371093-.089844zm351.613282 194.511719c-13.15625 25.882813-25.644532 50.453125-29.753906 79.8125-26.484376 1.96875-43.449219 12.441406-58.59375 21.789063-13.789063 8.511718-26.917969 16.613281-47.089844 18.644531v-29.511719c0-5.523438-4.476563-10-10-10-5.519532 0-10 4.476562-10 10v29.511719c-20.171875-2.03125-33.300782-10.136719-47.085938-18.644531-15.148437-9.347657-32.113281-19.820313-58.597656-21.789063-4.109375-29.355469-16.597656-53.929687-29.753906-79.8125-16.152344-31.773437-34.09375-67.066406-41.296875-119.519531 8.097656 8.449218 18.964843 16.371094 33.550781 22.339844 36.878906 15.089843 88.40625 13.574218 153.1875-4.5 25.941406 7.238281 50.007812 11.871093 71.566406 13.773437 5.5.484375 10.355469-3.578125 10.84375-9.082031.484375-5.5-3.582031-10.351563-9.082031-10.839844-21.023437-1.855469-44.71875-6.503906-70.441406-13.816406-.917969-.277344-1.886719-.425782-2.871094-.429688-.003906 0-.007813 0-.011719 0s-.007812 0-.011718 0c-.988282 0-1.957032.148438-2.882813.429688-61.578125 17.507812-109.597656 19.507812-142.722656 5.953125-20.449219-8.367188-31.574219-21.394531-37.625-32.964844 7.425781-4.390625 17.726562-12.695313 27.679687-28.152344 21.738282-33.769531 32.890625-86.28125 33.167969-156.089843 4.675781-.773438 9.863281-1.335938 15.804687-1.714844 2.101563 27.753906 12.378907 53.71875 29.480469 74.019531 20.355469 24.15625 47.738281 37.460937 77.105469 37.460937s56.75-13.304687 77.105469-37.460937c17.101562-20.300781 27.375-46.265625 29.476562-74.019531 5.945313.378906 11.128907.941406 15.808594 1.714844.277344 69.808593 11.425781 122.320312 33.167969 156.089843 9.953125 15.460938 20.261718 23.765625 27.683594 28.152344-6.714844 12.863281-19.523438 27.207031-43.957032 35.300781-5.242187 1.734375-8.082031 7.394532-6.347656 12.636719s7.394531 8.085937 12.636719 6.347656c18.636719-6.171875 31.847656-15.550781 41.183593-25.339843-7.1875 52.554687-25.152343 87.898437-41.324218 119.710937zm0 0" /></svg>