<?xml version="1.0" encoding="iso-8859-1"?>
<!-- Generator: Adobe Illustrator 19.0.0, SVG Export Plug-In . SVG Version: 6.00 Build 0)  -->
<svg version="1.1" id="Capa_1" xmlns="http://www.w3.org/2000/svg" xmlns:xlink="http://www.w3.org/1999/xlink" x="0px" y="0px"
	 viewBox="0 0 512 512" style="enable-background:new 0 0 512 512;" xml:space="preserve">
<g>
	<g>
		<path fill="#fff" d="M472.949,368.603c-26.965-13.061-62.57-11.326-93.643-12.752c-32.259-1.48-57.711-29.516-56.006-63.21l9.865-194.925
			c0.21-4.137-2.975-7.66-7.111-7.869c-4.121-0.225-7.659,2.974-7.869,7.111l-5.331,105.343
			c-25.911-5.194-52.641,8.213-63.607,32.59c-11.808,26.264-2.766,52.923-22.855,74.609c-1.236-5.446-1.747-11.104-1.456-16.859
			c12.841-268.944,15.979-266.594,10.455-277.641h74.323c6.652,0,12.327,5.749,11.958,13.064l-1.715,33.893
			c-0.21,4.137,2.975,7.66,7.111,7.869c4.138,0.219,7.66-2.975,7.869-7.111l1.715-33.893c0.383-7.558-2.365-15.015-7.54-20.457
			C323.983,2.971,317.095,0,309.714,0C278.409,0,50.334,0,25.098,0C10.468,0-0.799,12.546,0.048,27.003l13.428,229.431
			c0.242,4.134,3.783,7.291,7.925,7.049c4.135-0.242,7.291-3.79,7.049-7.926L15.024,26.126c-0.361-6.152,4.367-11.125,10.074-11.125
			c197.75,0.167,186.386-0.399,189.387,0.442c5.178,1.448,9.13,6.486,8.819,12.622l-8.818,174.237
			c-30.469-6.108-63.373,12.961-69.126,51.415l-4.271,28.559c-3.724,24.899-24.249,42.972-48.802,42.972H32.531l-2.03-34.689
			c-0.243-4.135-3.803-7.307-7.925-7.049c-4.135,0.242-7.291,3.79-7.049,7.926c0.599,10.236,11.138,190.314,11.771,201.108
			c0.637,10.87,9.54,19.448,20.347,19.448c102.073,0,96.02,0.052,97.425-0.093c8.944-0.923,15.947-8.597,15.947-17.897l0.003-8.732
			l29.457,18.254c8.94,5.54,19.196,8.468,29.657,8.468c6.725,0,256.081,0,264.585,0c15.042,0,27.278-12.438,27.278-27.724
			c0-9.793,0-31.067,0-41.9C511.994,405.455,499.223,381.328,472.949,368.603z M262.928,241.043
			c8.4-18.674,29.359-28.614,49.156-23.536l-3.764,74.376c-1.43,28.26,12.537,53.493,34.359,67.524
			c-49.263-7.319-76.412,5.619-102.099-22.674c-3.333-3.671-6.159-7.683-8.464-11.95
			C262.198,298.883,252.054,265.222,262.928,241.043z M398.629,448.825H298.594c-4.143,0-7.5,3.357-7.5,7.5s3.357,7.5,7.5,7.5
			h100.034v20.44c0,7.016-5.508,12.724-12.278,12.724h-166.22c-7.667,0.001-15.191-2.15-21.756-6.217l-29.947-18.56
			c-9.848-6.101-22.415,1.104-22.415,12.69V494c0,1.642-1.231,2.989-2.758,2.989H47.643c-2.837,0-5.197-2.339-5.372-5.324
			l-1.629-27.839h222.951c4.143,0,7.5-3.357,7.5-7.5s-3.357-7.5-7.5-7.5H39.764l-6.355-108.579h58.879
			c31.771,0,58.839-23.672,63.638-55.753c4.174-24.82,3.542-32.12,8.636-43.45c8.399-18.675,29.355-28.619,49.156-23.537
			l-3.764,74.377c-2.117,41.821,29.574,77.084,70.3,78.952c62.834,2.877,118.375-2.469,118.375,71.53V448.825z M484.716,496.99
			h-74.133c5.08-9.939,2.266-18.266,3.046-33.163h83.365v20.44h0C496.994,491.283,491.486,496.99,484.716,496.99z M496.994,448.826
			h-83.365c-0.033-22.626-1.234-42.514-15.038-60.876c-5.424-7.207-12.126-12.784-19.721-17.103
			c62.046,2.804,118.123-2.562,118.123,71.519V448.826z"/>
	</g>
</g>
<g>
</g>
<g>
</g>
<g>
</g>
<g>
</g>
<g>
</g>
<g>
</g>
<g>
</g>
<g>
</g>
<g>
</g>
<g>
</g>
<g>
</g>
<g>
</g>
<g>
</g>
<g>
</g>
<g>
</g>
</svg>
