<svg id="Capa_1" enable-background="new 0 0 511.997 511.997" height="512" viewBox="0 0 511.997 511.997" width="512" xmlns="http://www.w3.org/2000/svg"><g><path fill="#fff" d="m147.382 363.56-10.748 10.749c-2.929 2.929-2.929 7.678.001 10.607 2.927 2.929 7.677 2.929 10.607 0l10.748-10.749c2.929-2.929 2.929-7.678-.001-10.606-2.928-2.93-7.677-2.929-10.607-.001zm26.313 26.312-10.749 10.749c-2.93 2.929-2.93 7.677-.001 10.606 2.928 2.928 7.677 2.93 10.606 0l10.749-10.749c2.93-2.929 2.93-7.677.001-10.606-2.928-2.928-7.677-2.929-10.606 0zm80.62-155.108c-4.126-.287-7.712 2.836-7.996 6.969-.604 8.789 2.617 17.397 8.837 23.617 6.199 6.198 14.794 9.44 23.616 8.836 4.133-.284 7.253-3.864 6.969-7.996-.284-4.133-3.863-7.253-7.996-6.969-4.479.307-8.83-1.327-11.982-4.479s-4.785-7.52-4.479-11.982c.284-4.132-2.837-7.712-6.969-7.996zm248.128 14.66c-7.906-21.72-32.009-32.96-53.729-25.054l-53.446 19.453 64.903-45.446c18.978-13.287 23.586-39.402 10.295-58.383-13.286-18.976-39.403-23.586-58.383-10.294l-39.871 27.918 38.469-45.846c14.892-17.748 12.583-44.164-5.167-59.058-17.743-14.89-44.164-12.584-59.058 5.167l-59.115 70.451 32.025-68.678c9.768-20.949.672-45.939-20.276-55.708-18.42-8.59-40.274-2.78-51.965 13.81-2.386 3.386-1.575 8.065 1.811 10.451 3.388 2.387 8.065 1.574 10.451-1.811 7.502-10.648 21.532-14.373 33.363-8.855 13.453 6.273 19.294 22.322 13.021 35.775l-50.168 107.583c-2.007 4.305-.556 9.282 3.45 11.834 4.005 2.551 9.13 1.764 12.185-1.876l86.708-103.335c9.563-11.396 26.526-12.883 37.926-3.317 11.396 9.563 12.883 26.527 3.318 37.925l-66.063 78.73c-3.055 3.638-2.942 8.821.266 12.324 3.21 3.504 8.363 4.068 12.256 1.344l30.665-21.472c-.246 18.356 2.198 39.266 7.159 60.714l-31.973 22.388c-3.892 2.724-5.125 7.76-2.932 11.974 2.192 4.214 7.027 6.091 11.49 4.469l31.125-11.329c5.911 17.893 13.221 34.519 21.811 49.612-20.424 8.671-39.283 21.349-54.95 37.015l-41.211 41.211c-2.929 2.929-2.929 7.678 0 10.606 2.93 2.929 7.678 2.929 10.607 0l41.21-41.211c16.228-16.227 36.203-28.953 57.766-36.8l50.973-18.552c21.721-7.906 32.96-32.009 25.054-53.729zm-110.601-87.241 28.844-20.197c12.189-8.533 28.958-5.578 37.492 6.611 8.533 12.187 5.578 28.957-6.611 37.492l-54.775 38.354c-4.7-22.531-6.471-44.582-4.95-62.26zm80.416 126.875-45.075 16.406c-8.573-14.751-16.044-31.584-21.893-49.326l48.554-17.672c13.942-5.077 29.425 2.141 34.503 16.09 5.089 13.979-2.106 29.412-16.089 34.502zm-249.481-94.702-8.485 8.485c-2.929 2.929-2.929 7.678 0 10.607 2.93 2.929 7.678 2.929 10.607 0l8.485-8.485c2.929-2.929 2.929-7.678 0-10.606-2.93-2.93-7.678-2.93-10.607-.001zm95.988 112.485c-2.929 2.929-2.929 7.678.001 10.607 2.928 2.929 7.677 2.928 10.607-.001 8.346-8.347 8.346-21.927 0-30.273-4.044-4.043-9.419-6.27-15.137-6.27s-11.093 2.227-15.137 6.27c-2.929 2.929-2.929 7.678 0 10.606 2.93 2.929 7.678 2.929 10.607 0 2.496-2.497 6.563-2.497 9.059 0 2.498 2.499 2.498 6.563 0 9.061zm-26.89 107.229-21.313 21.313-30.541-30.541c-.183-2.621-.642-5.226-1.394-7.763 28.38-37.008 28.358-85.595-.623-114.576-27.85-27.85-74.556-28.832-111.011-3.198l-29.087-29.087 4.345-111.749c25.653 6.157 53.724 5.845 78.251-.221l.67 9.854c.314 4.619 3.712 8.436 8.263 9.285 4.55.848 9.096-1.489 11.053-5.686l44.105-94.584c1.751-3.754.127-8.216-3.627-9.967-3.753-1.749-8.216-.126-9.967 3.628l-36.14 77.501-1.857-27.302c-1.855-27.319-24.759-48.719-52.142-48.719-28.188 0-51.127 22.064-52.223 50.231l-5.242 134.817c-10.47-5.698-23.873-4.13-32.72 4.716l-35.582 35.582c-10.761 10.761-10.761 28.272 0 39.033l139.867 139.867c6.212 6.212 14.293 9.867 22.973 10.463l36.96 36.96c10.761 10.761 28.272 10.762 39.034 0l23.073-23.074c9.33-9.331 10.565-23.732 3.715-34.412l21.766-21.765c2.93-2.929 2.93-7.677.001-10.607-2.93-2.928-7.679-2.929-10.607.001zm-188.249-310.999c.781-20.083 17.137-35.814 37.234-35.814 19.523 0 35.854 15.258 37.177 34.736l1.43 21.035c-24.118 6.494-52.345 6.567-76.623.149zm123.77 190.037c22.315 22.315 23.072 59.443 3.003 89.645-.272-.29-.539-.582-.822-.865l-91.797-91.797c30.158-19.96 67.486-19.114 89.616 3.017zm-61.828 152.788-139.867-139.868c-4.913-4.913-4.913-12.907 0-17.82l35.582-35.581c4.911-4.912 12.906-4.913 17.818 0l139.867 139.867c8.21 8.209 8.21 21.566 0 29.776l-23.626 23.626c-8.225 8.227-21.545 8.229-29.774 0zm100.825 24.351-23.072 23.072c-4.912 4.913-12.907 4.912-17.819 0l-29.676-29.677c3.714-1.752 7.136-4.151 10.125-7.14l23.626-23.625c3.029-3.029 5.402-6.469 7.125-10.14l29.691 29.691c4.913 4.912 4.913 12.906 0 17.819z"/></g></svg>