<svg id="Capa_1" enable-background="new 0 0 512.034 512.034" height="512" viewBox="0 0 512.034 512.034" width="512" xmlns="http://www.w3.org/2000/svg"><g id="XMLID_1863_"><g id="XMLID_514_"><path fill="#fff" id="XMLID_519_" d="m510.679 147.518c-19.21-33.049-44.713-61.241-75.8-83.793-4.469-3.243-10.722-2.248-13.967 2.222-3.243 4.47-2.248 10.723 2.223 13.966 19.722 14.307 37.019 31.063 51.678 50.029-23.404-6.884-48.215-7.652-72.486-2.049-51.663-40.986-119.84-54.742-183.459-36.743-51.193 14.483-94.234 47.988-121.193 94.342-26.961 46.356-34.795 100.333-22.059 151.986.008.032 1.361 5.089 1.361 5.089 5.729 21.382 2.789 43.715-8.279 62.885-8.075 13.986-19.77 25.066-33.808 32.262 4.404-25.385 3.262-51.509-3.446-76.542l-4.094-15.28c-32.316-131.287 47.23-268.022 177.361-304.839 46.35-13.113 95.111-12.865 141.01.715 5.293 1.568 10.858-1.456 12.426-6.751 1.567-5.296-1.456-10.859-6.752-12.426-49.528-14.655-102.134-14.926-152.129-.783-68.364 19.342-125.843 64.088-161.848 125.994-36.007 61.911-46.47 133.995-29.462 202.972.016.065.032.129.05.194l4.12 15.38c7.436 27.748 7.168 57.006-.771 84.612-.996 3.465-.051 7.198 2.475 9.771 1.906 1.94 4.488 2.994 7.137 2.994.862 0 1.731-.112 2.587-.341 26.543-7.112 48.727-24.134 62.466-47.931 12.914-22.367 16.912-48.203 11.44-73.267l47.158-12.636c5.151 16.401 13.208 31.445 24.04 44.812 3.16 3.9 5.428 8.361 6.639 12.882 2.065 7.712 2.258 16.095.457 23.869-.793 3.421.268 7.007 2.793 9.448s6.145 3.377 9.537 2.469l57.32-15.359c6.607-1.771 12.131-6.009 15.552-11.934s4.33-12.828 2.559-19.436c-2.173-8.109 2.657-16.474 10.766-18.647 3.932-1.053 8.032-.512 11.554 1.521s6.041 5.316 7.094 9.245l14.116 52.683c.584 2.181 1.889 4.099 3.702 5.444l97.255 72.123c1.767 1.31 3.86 1.968 5.958 1.968 1.96 0 3.923-.575 5.623-1.731 3.518-2.393 5.137-6.748 4.035-10.857l-41.982-156.681c-.396-1.478-1.126-2.846-2.134-3.997l-13.106-14.977 30.389-18.625 12.389 46.237c1.197 4.468 5.237 7.414 9.653 7.414.856 0 1.728-.111 2.594-.343 5.335-1.429 8.501-6.913 7.071-12.248l-21.887-81.683c-6.315-23.568-18.499-44.514-35.315-61.259l34.418-44.242c31.188-7.494 63.478-2.735 91.279 13.531 1.573.92 3.315 1.369 5.047 1.369 2.582 0 5.139-.999 7.063-2.919 3.214-3.21 3.864-8.182 1.582-12.109zm-349.025 168.78c-14.603-59.226 22.656-123.293 81.362-139.902 30.26-8.562 61.97-4.729 89.286 10.79 13.339 7.579 24.814 17.484 34.019 29.165-60.076 48.822-127.55 86.636-200.814 112.541-1.505-4.094-2.793-8.293-3.853-12.594zm184.182-14.763c-2.512 1.54-4.218 4.108-4.66 7.021-.443 2.913.42 5.873 2.36 8.09l19.379 22.145 33.957 126.728-71.415-52.96-13.214-49.315c-2.435-9.088-8.264-16.685-16.412-21.389s-17.642-5.952-26.729-3.519c-18.762 5.027-29.936 24.38-24.908 43.142.389 1.448.189 2.96-.561 4.258-.75 1.299-1.96 2.228-3.408 2.616l-43.221 11.581c-.014-5.955-.848-12.107-2.394-17.877-1.938-7.235-5.478-14.191-10.416-20.285-3.779-4.663-7.154-9.572-10.136-14.698 74.054-26.419 142.335-64.682 203.273-113.908 4.226 7.877 7.578 16.298 9.952 25.157l4.099 15.298zm10.26-122.693c-4.42-3.264-9.061-6.288-13.915-9.046-32.009-18.184-69.158-22.675-104.61-12.645-33.43 9.458-61.854 31.883-80.035 63.146-16.216 27.882-22.282 59.366-17.508 89.777l-47.159 12.636c-17.365-92.583 39.851-186.402 131.444-212.315 55.797-15.789 115.502-4.515 161.622 30.091z"/><path fill="#fff" id="XMLID_527_" d="m390.463 58.576c2.64 0 5.21-1.07 7.08-2.93 1.86-1.87 2.92-4.44 2.92-7.07s-1.06-5.21-2.92-7.07c-1.87-1.87-4.44-2.93-7.08-2.93-2.63 0-5.21 1.06-7.07 2.93-1.859 1.86-2.93 4.43-2.93 7.07 0 2.63 1.07 5.21 2.93 7.07s4.44 2.93 7.07 2.93z"/></g></g></svg>