<svg id="Capa_1" enable-background="new 0 0 512 512" height="512" viewBox="0 0 512 512" width="512" xmlns="http://www.w3.org/2000/svg"><g><path fill="#fff" d="m508.188 3.802c-3.045-3.045-7.387-4.379-11.616-3.569l-46.228 8.847c-5.809 1.111-11.09 3.909-15.271 8.091l-165.696 165.696c-2.929 2.929-2.929 7.678 0 10.607s7.678 2.929 10.607 0l165.696-165.697c2.049-2.049 4.636-3.42 7.483-3.965l43.304-8.288-8.282 43.31c-.544 2.847-1.916 5.436-3.965 7.486l-272.878 272.876 8.041-30.741c.481-1.836.549-3.695.248-5.479l250.623-250.622c2.929-2.929 2.929-7.678 0-10.607s-7.678-2.929-10.607 0l-250.619 250.62c-1.785-.303-3.647-.235-5.484.246l-30.742 8.042 84.087-84.087c2.929-2.929 2.929-7.678 0-10.607s-7.678-2.929-10.607 0l-97.818 97.818c-6.289-9.708-11.24-19.475-14.515-28.629 12.626-12.629 12.625-33.175-.002-45.804-12.629-12.63-33.178-12.629-45.806 0-6.118 6.118-9.487 14.252-9.487 22.903 0 8.652 3.369 16.786 9.487 22.903.189.189.385.366.577.55-.661 20.851 10.231 47.451 29.152 72.835l-85.502 85.503c-2.726-1.088-5.659-1.662-8.682-1.662-6.252 0-12.129 2.435-16.549 6.855l-.284.284c-9.125 9.125-9.125 23.972 0 33.097l4.878 4.878c2.929 2.929 7.678 2.929 10.607 0s2.929-7.678 0-10.607l-4.878-4.878c-1.587-1.587-2.461-3.697-2.461-5.942s.874-4.355 2.461-5.942l.285-.284c1.587-1.587 3.697-2.461 5.941-2.461s4.355.874 5.942 2.461l32.531 32.531c1.587 1.587 2.461 3.697 2.461 5.942s-.874 4.355-2.461 5.942l-.285.284c-1.587 1.587-3.697 2.461-5.941 2.461-2.245 0-4.355-.874-5.942-2.461l-4.559-4.559c-2.929-2.929-7.678-2.929-10.607 0s-2.929 7.678 0 10.607l4.559 4.559c4.42 4.42 10.297 6.855 16.549 6.855s12.129-2.435 16.549-6.855l.284-.284c6.807-6.806 8.529-16.795 5.182-25.219l85.49-85.49c4.976 3.713 10.04 7.147 15.174 10.282 1.22.745 2.569 1.1 3.901 1.1 2.527 0 4.995-1.277 6.408-3.592 2.159-3.535 1.043-8.151-2.492-10.31-12.808-7.821-25.185-17.67-36.789-29.274-25.466-25.466-42.768-55.666-45.565-78.474 2.264.494 4.596.756 6.969.756 3.399 0 6.716-.528 9.865-1.53 4.158 10.741 10.226 22.042 17.79 33.066 3.098 4.516 8.727 6.623 14.01 5.24l51.29-13.417-13.417 51.291c-1.381 5.28.724 10.91 5.239 14.009 11.039 7.574 22.337 13.643 33.086 17.801-1.727 5.437-1.987 11.24-.779 16.789-4.324-.532-8.962-1.574-13.903-3.16-3.944-1.266-8.168.905-9.434 4.849s.905 8.168 4.849 9.434c8.905 2.858 17.219 4.298 24.787 4.298.627 0 1.244-.019 1.86-.038.186.195.365.395.557.586 6.315 6.315 14.609 9.471 22.903 9.471 8.295 0 16.589-3.157 22.903-9.471 12.629-12.629 12.629-33.178 0-45.806-12.629-12.629-33.177-12.629-45.806 0-9.156-3.276-18.915-8.225-28.627-14.517l286.609-286.609c4.183-4.184 6.982-9.466 8.092-15.275l8.841-46.233c.809-4.229-.526-8.572-3.571-11.616zm-415.284 439.67-14.149-34.606 22.762-22.762 14.149 34.606zm-48.593-.162 22.941-22.941 14.149 34.606-12.712 12.712zm107.373-58.619-24.516 24.516-14.149-34.606 14.284-14.284c3.693 4.297 7.607 8.525 11.73 12.647 4.123 4.124 8.35 8.022 12.651 11.727zm-52.937-120.144c-3.285-3.285-5.093-7.651-5.093-12.297 0-4.645 1.809-9.012 5.093-12.297 3.391-3.39 7.843-5.085 12.297-5.085 4.453 0 8.907 1.695 12.297 5.085 6.78 6.78 6.78 17.813 0 24.593-3.285 3.285-7.652 5.093-12.297 5.093-4.646.002-9.012-1.807-12.297-5.092zm161 119.018c4.645 0 9.012 1.809 12.297 5.093 6.78 6.78 6.78 17.813 0 24.593-6.781 6.779-17.813 6.78-24.593 0s-6.78-17.813 0-24.593c3.284-3.285 7.651-5.093 12.296-5.093z"/><path fill="#fff" d="m165.423 335.973-.2.219c-2.79 3.063-2.568 7.806.494 10.595 1.438 1.31 3.246 1.956 5.049 1.956 2.037 0 4.067-.825 5.546-2.449l.2-.219c2.79-3.063 2.568-7.806-.494-10.595s-7.806-2.569-10.595.493z"/></g></svg>